{
	"asset":{
		"generator":"Khronos glTF Blender I/O v3.5.30",
		"version":"2.0"
	},
	"scene":0,
	"scenes":[
		{
			"name":"Scene",
			"nodes":[
				0
			]
		}
	],
	"nodes":[
		{
			"mesh":0,
			"name":"bespoke",
			"rotation":[
				0.7071068286895752,
				0,
				0,
				0.7071068286895752
			]
		}
	],
	"materials":[
		{
			"doubleSided":true,
			"name":"Material",
			"pbrMetallicRoughness":{
				"baseColorFactor":[
					0.002124686259776354,
					0.002124686958268285,
					0.002124688820913434,
					1
				],
				"metallicFactor":0.5,
				"roughnessFactor":0.5
			}
		}
	],
	"meshes":[
		{
			"name":"bespoke",
			"primitives":[
				{
					"attributes":{
						"POSITION":0,
						"TEXCOORD_0":1,
						"NORMAL":2
					},
					"indices":3,
					"material":0
				}
			]
		}
	],
	"accessors":[
		{
			"bufferView":0,
			"componentType":5126,
			"count":1362,
			"max":[
				0.11983820050954819,
				0.005000039003789425,
				0.08713563531637192
			],
			"min":[
				-0.10596060007810593,
				-0.005000055301934481,
				-0.12144596129655838
			],
			"type":"VEC3"
		},
		{
			"bufferView":1,
			"componentType":5126,
			"count":1362,
			"type":"VEC2"
		},
		{
			"bufferView":2,
			"componentType":5126,
			"count":1362,
			"type":"VEC3"
		},
		{
			"bufferView":3,
			"componentType":5123,
			"count":3354,
			"type":"SCALAR"
		}
	],
	"bufferViews":[
		{
			"buffer":0,
			"byteLength":16344,
			"byteOffset":0,
			"target":34962
		},
		{
			"buffer":0,
			"byteLength":10896,
			"byteOffset":16344,
			"target":34962
		},
		{
			"buffer":0,
			"byteLength":16344,
			"byteOffset":27240,
			"target":34962
		},
		{
			"buffer":0,
			"byteLength":6708,
			"byteOffset":43584,
			"target":34963
		}
	],
	"buffers":[
		{
			"byteLength":50292,
			"uri":"data:application/octet-stream;base64,"
		}
	]
}
