{
	"asset":{
		"generator":"Khronos glTF Blender I/O v3.5.30",
		"version":"2.0"
	},
	"extensionsUsed":[
		"KHR_materials_specular",
		"KHR_materials_ior"
	],
	"scene":0,
	"scenes":[
		{
			"name":"Scene",
			"nodes":[
				0,
				1,
				2,
				3,
				4
			]
		}
	],
	"nodes":[
		{
			"mesh":0,
			"name":"indigo"
		},
		{
			"mesh":1,
			"name":"Sphere",
			"translation":[
				-0.4000000059604645,
				0.42500001192092896,
				0.05000000074505806
			]
		},
		{
			"mesh":2,
			"name":"Sphere.001",
			"translation":[
				0,
				0.1550000011920929,
				0.05000000074505806
			]
		},
		{
			"mesh":3,
			"name":"Sphere.002",
			"translation":[
				0.22999995946884155,
				-0.024999987334012985,
				0.05000000074505806
			]
		},
		{
			"mesh":4,
			"name":"Sphere.003",
			"translation":[
				-0.23000001907348633,
				-0.17499998211860657,
				0.05000000074505806
			]
		}
	],
	"materials":[
		{
			"doubleSided":true,
			"extensions":{
				"KHR_materials_specular":{
					"specularColorFactor":[
						0.237135764977738,
						0.237135764977738,
						0.237135764977738
					]
				},
				"KHR_materials_ior":{
					"ior":1.4500000476837158
				}
			},
			"name":"light_grey",
			"pbrMetallicRoughness":{
				"baseColorFactor":[
					0.6307565569877625,
					0.630756676197052,
					0.6307572722434998,
					1
				],
				"metallicFactor":0.10000000149011612,
				"roughnessFactor":0.10000000149011612
			}
		},
		{
			"doubleSided":true,
			"extensions":{
				"KHR_materials_specular":{
					"specularColorFactor":[
						0.237135764977738,
						0.237135764977738,
						0.237135764977738
					]
				},
				"KHR_materials_ior":{
					"ior":1.4500000476837158
				}
			},
			"name":"indigo",
			"pbrMetallicRoughness":{
				"baseColorFactor":[
					0.13013611733913422,
					0.01938207820057869,
					0.6375969052314758,
					1
				],
				"metallicFactor":0.10000000149011612,
				"roughnessFactor":0.10000000149011612
			}
		},
		{
			"doubleSided":true,
			"extensions":{
				"KHR_materials_specular":{
					"specularColorFactor":[
						0.237135764977738,
						0.237135764977738,
						0.237135764977738
					]
				},
				"KHR_materials_ior":{
					"ior":1.4500000476837158
				}
			},
			"name":"magenta",
			"pbrMetallicRoughness":{
				"baseColorFactor":[
					0.6307573318481445,
					0.019382141530513763,
					0.16202938556671143,
					1
				],
				"metallicFactor":0.10000000149011612,
				"roughnessFactor":0.10000000149011612
			}
		},
		{
			"doubleSided":true,
			"extensions":{
				"KHR_materials_specular":{
					"specularColorFactor":[
						0.237135764977738,
						0.237135764977738,
						0.237135764977738
					]
				},
				"KHR_materials_ior":{
					"ior":1.4500000476837158
				}
			},
			"name":"dark_grey",
			"pbrMetallicRoughness":{
				"baseColorFactor":[
					0.1946176439523697,
					0.19461767375469208,
					0.1946178525686264,
					1
				],
				"metallicFactor":0.10000000149011612,
				"roughnessFactor":0.10000000149011612
			}
		}
	],
	"meshes":[
		{
			"name":"Cube",
			"primitives":[
				{
					"attributes":{
						"POSITION":0,
						"TEXCOORD_0":1,
						"NORMAL":2
					},
					"indices":3,
					"material":0
				},
				{
					"attributes":{
						"POSITION":4,
						"TEXCOORD_0":5,
						"NORMAL":6
					},
					"indices":7,
					"material":1
				}
			]
		},
		{
			"name":"Sphere",
			"primitives":[
				{
					"attributes":{
						"POSITION":8,
						"TEXCOORD_0":9,
						"NORMAL":10
					},
					"indices":11,
					"material":2
				}
			]
		},
		{
			"name":"Sphere.001",
			"primitives":[
				{
					"attributes":{
						"POSITION":12,
						"TEXCOORD_0":13,
						"NORMAL":14
					},
					"indices":15,
					"material":3
				}
			]
		},
		{
			"name":"Sphere.002",
			"primitives":[
				{
					"attributes":{
						"POSITION":16,
						"TEXCOORD_0":17,
						"NORMAL":18
					},
					"indices":19,
					"material":3
				}
			]
		},
		{
			"name":"Sphere.012",
			"primitives":[
				{
					"attributes":{
						"POSITION":20,
						"TEXCOORD_0":21,
						"NORMAL":22
					},
					"indices":23,
					"material":1
				}
			]
		}
	],
	"accessors":[
		{
			"bufferView":0,
			"componentType":5126,
			"count":129,
			"max":[
				0.5,
				0.33000001311302185,
				0.049999967217445374
			],
			"min":[
				-0.5,
				-0.5,
				-0.049999967217445374
			],
			"type":"VEC3"
		},
		{
			"bufferView":1,
			"componentType":5126,
			"count":129,
			"type":"VEC2"
		},
		{
			"bufferView":2,
			"componentType":5126,
			"count":129,
			"type":"VEC3"
		},
		{
			"bufferView":3,
			"componentType":5123,
			"count":564,
			"type":"SCALAR"
		},
		{
			"bufferView":4,
			"componentType":5126,
			"count":129,
			"max":[
				0.5,
				0.5000000596046448,
				0.049999967217445374
			],
			"min":[
				-0.5,
				0.34999993443489075,
				-0.049999967217445374
			],
			"type":"VEC3"
		},
		{
			"bufferView":5,
			"componentType":5126,
			"count":129,
			"type":"VEC2"
		},
		{
			"bufferView":6,
			"componentType":5126,
			"count":129,
			"type":"VEC3"
		},
		{
			"bufferView":7,
			"componentType":5123,
			"count":564,
			"type":"SCALAR"
		},
		{
			"bufferView":8,
			"componentType":5126,
			"count":453,
			"max":[
				0.28999999165534973,
				0.05000000074505806,
				0.04999999701976776
			],
			"min":[
				-0.04999999701976776,
				-0.05000000074505806,
				-0.05000000074505806
			],
			"type":"VEC3"
		},
		{
			"bufferView":9,
			"componentType":5126,
			"count":453,
			"type":"VEC2"
		},
		{
			"bufferView":10,
			"componentType":5126,
			"count":453,
			"type":"VEC3"
		},
		{
			"bufferView":11,
			"componentType":5123,
			"count":2016,
			"type":"SCALAR"
		},
		{
			"bufferView":12,
			"componentType":5126,
			"count":190,
			"max":[
				0.44999998807907104,
				0.05000000074505806,
				0.04999999701976776
			],
			"min":[
				-0.44999998807907104,
				-0.05000000074505806,
				-0.05000000074505806
			],
			"type":"VEC3"
		},
		{
			"bufferView":13,
			"componentType":5126,
			"count":190,
			"type":"VEC2"
		},
		{
			"bufferView":14,
			"componentType":5126,
			"count":190,
			"type":"VEC3"
		},
		{
			"bufferView":15,
			"componentType":5123,
			"count":864,
			"type":"SCALAR"
		},
		{
			"bufferView":16,
			"componentType":5126,
			"count":570,
			"max":[
				0.2199999988079071,
				0.05000000074505806,
				0.04999999701976776
			],
			"min":[
				-0.2199999988079071,
				-0.3500000238418579,
				-0.05000000074505806
			],
			"type":"VEC3"
		},
		{
			"bufferView":17,
			"componentType":5126,
			"count":570,
			"type":"VEC2"
		},
		{
			"bufferView":18,
			"componentType":5126,
			"count":570,
			"type":"VEC3"
		},
		{
			"bufferView":19,
			"componentType":5123,
			"count":2592,
			"type":"SCALAR"
		},
		{
			"bufferView":20,
			"componentType":5126,
			"count":234,
			"max":[
				0.20999999344348907,
				0.19999998807907104,
				0.04999999701976776
			],
			"min":[
				-0.20999999344348907,
				-0.19999998807907104,
				-0.05000000074505806
			],
			"type":"VEC3"
		},
		{
			"bufferView":21,
			"componentType":5126,
			"count":234,
			"type":"VEC2"
		},
		{
			"bufferView":22,
			"componentType":5126,
			"count":234,
			"type":"VEC3"
		},
		{
			"bufferView":23,
			"componentType":5123,
			"count":1104,
			"type":"SCALAR"
		}
	],
	"bufferViews":[
		{
			"buffer":0,
			"byteLength":1548,
			"byteOffset":0,
			"target":34962
		},
		{
			"buffer":0,
			"byteLength":1032,
			"byteOffset":1548,
			"target":34962
		},
		{
			"buffer":0,
			"byteLength":1548,
			"byteOffset":2580,
			"target":34962
		},
		{
			"buffer":0,
			"byteLength":1128,
			"byteOffset":4128,
			"target":34963
		},
		{
			"buffer":0,
			"byteLength":1548,
			"byteOffset":5256,
			"target":34962
		},
		{
			"buffer":0,
			"byteLength":1032,
			"byteOffset":6804,
			"target":34962
		},
		{
			"buffer":0,
			"byteLength":1548,
			"byteOffset":7836,
			"target":34962
		},
		{
			"buffer":0,
			"byteLength":1128,
			"byteOffset":9384,
			"target":34963
		},
		{
			"buffer":0,
			"byteLength":5436,
			"byteOffset":10512,
			"target":34962
		},
		{
			"buffer":0,
			"byteLength":3624,
			"byteOffset":15948,
			"target":34962
		},
		{
			"buffer":0,
			"byteLength":5436,
			"byteOffset":19572,
			"target":34962
		},
		{
			"buffer":0,
			"byteLength":4032,
			"byteOffset":25008,
			"target":34963
		},
		{
			"buffer":0,
			"byteLength":2280,
			"byteOffset":29040,
			"target":34962
		},
		{
			"buffer":0,
			"byteLength":1520,
			"byteOffset":31320,
			"target":34962
		},
		{
			"buffer":0,
			"byteLength":2280,
			"byteOffset":32840,
			"target":34962
		},
		{
			"buffer":0,
			"byteLength":1728,
			"byteOffset":35120,
			"target":34963
		},
		{
			"buffer":0,
			"byteLength":6840,
			"byteOffset":36848,
			"target":34962
		},
		{
			"buffer":0,
			"byteLength":4560,
			"byteOffset":43688,
			"target":34962
		},
		{
			"buffer":0,
			"byteLength":6840,
			"byteOffset":48248,
			"target":34962
		},
		{
			"buffer":0,
			"byteLength":5184,
			"byteOffset":55088,
			"target":34963
		},
		{
			"buffer":0,
			"byteLength":2808,
			"byteOffset":60272,
			"target":34962
		},
		{
			"buffer":0,
			"byteLength":1872,
			"byteOffset":63080,
			"target":34962
		},
		{
			"buffer":0,
			"byteLength":2808,
			"byteOffset":64952,
			"target":34962
		},
		{
			"buffer":0,
			"byteLength":2208,
			"byteOffset":67760,
			"target":34963
		}
	],
	"buffers":[
		{
			"byteLength":69968,
			"uri":"data:application/octet-stream;base64,"
		}
	]
}
