{
	"asset":{
		"generator":"Khronos glTF Blender I/O v3.5.30",
		"version":"2.0"
	},
	"scene":0,
	"scenes":[
		{
			"name":"Scene",
			"nodes":[
				0
			]
		}
	],
	"nodes":[
		{
			"mesh":0,
			"name":"brainstorm",
			"rotation":[
				0.7071068286895752,
				0,
				0,
				0.7071068286895752
			]
		}
	],
	"materials":[
		{
			"doubleSided":true,
			"name":"Material",
			"pbrMetallicRoughness":{
				"baseColorFactor":[
					0.1946176439523697,
					0.19461767375469208,
					0.1946178525686264,
					1
				],
				"metallicFactor":0.5,
				"roughnessFactor":0.5
			}
		}
	],
	"meshes":[
		{
			"name":"brainstorm",
			"primitives":[
				{
					"attributes":{
						"POSITION":0,
						"TEXCOORD_0":1,
						"NORMAL":2
					},
					"indices":3,
					"material":0
				}
			]
		}
	],
	"accessors":[
		{
			"bufferView":0,
			"componentType":5126,
			"count":670,
			"max":[
				0.08843254297971725,
				0.005000009201467037,
				0.097079336643219
			],
			"min":[
				-0.08713781833648682,
				-0.005000000353902578,
				-0.12867863476276398
			],
			"type":"VEC3"
		},
		{
			"bufferView":1,
			"componentType":5126,
			"count":670,
			"type":"VEC2"
		},
		{
			"bufferView":2,
			"componentType":5126,
			"count":670,
			"type":"VEC3"
		},
		{
			"bufferView":3,
			"componentType":5123,
			"count":1974,
			"type":"SCALAR"
		}
	],
	"bufferViews":[
		{
			"buffer":0,
			"byteLength":8040,
			"byteOffset":0,
			"target":34962
		},
		{
			"buffer":0,
			"byteLength":5360,
			"byteOffset":8040,
			"target":34962
		},
		{
			"buffer":0,
			"byteLength":8040,
			"byteOffset":13400,
			"target":34962
		},
		{
			"buffer":0,
			"byteLength":3948,
			"byteOffset":21440,
			"target":34963
		}
	],
	"buffers":[
		{
			"byteLength":25388,
			"uri":"data:application/octet-stream;base64,"
		}
	]
}
