{
	"asset":{
		"generator":"Khronos glTF Blender I/O v3.5.30",
		"version":"2.0"
	},
	"scene":0,
	"scenes":[
		{
			"name":"Scene",
			"nodes":[
				0
			]
		}
	],
	"nodes":[
		{
			"mesh":0,
			"name":"building",
			"rotation":[
				0.7071068286895752,
				0,
				0,
				0.7071068286895752
			]
		}
	],
	"materials":[
		{
			"doubleSided":true,
			"name":"Material",
			"pbrMetallicRoughness":{
				"baseColorFactor":[
					0.1946176439523697,
					0.19461767375469208,
					0.1946178525686264,
					1
				],
				"metallicFactor":0.5,
				"roughnessFactor":0.5
			}
		}
	],
	"meshes":[
		{
			"name":"building",
			"primitives":[
				{
					"attributes":{
						"POSITION":0,
						"TEXCOORD_0":1,
						"NORMAL":2
					},
					"indices":3,
					"material":0
				}
			]
		}
	],
	"accessors":[
		{
			"bufferView":0,
			"componentType":5126,
			"count":835,
			"max":[
				0.11223714798688889,
				0.005000001285225153,
				0.09872057288885117
			],
			"min":[
				-0.113545261323452,
				-0.005000000819563866,
				-0.09873790293931961
			],
			"type":"VEC3"
		},
		{
			"bufferView":1,
			"componentType":5126,
			"count":835,
			"type":"VEC2"
		},
		{
			"bufferView":2,
			"componentType":5126,
			"count":835,
			"type":"VEC3"
		},
		{
			"bufferView":3,
			"componentType":5123,
			"count":2118,
			"type":"SCALAR"
		}
	],
	"bufferViews":[
		{
			"buffer":0,
			"byteLength":10020,
			"byteOffset":0,
			"target":34962
		},
		{
			"buffer":0,
			"byteLength":6680,
			"byteOffset":10020,
			"target":34962
		},
		{
			"buffer":0,
			"byteLength":10020,
			"byteOffset":16700,
			"target":34962
		},
		{
			"buffer":0,
			"byteLength":4236,
			"byteOffset":26720,
			"target":34963
		}
	],
	"buffers":[
		{
			"byteLength":30956,
			"uri":"data:application/octet-stream;base64,"
		}
	]
}
