{
	"asset":{
		"generator":"Khronos glTF Blender I/O v3.5.30",
		"version":"2.0"
	},
	"scene":0,
	"scenes":[
		{
			"name":"Scene",
			"nodes":[
				0
			]
		}
	],
	"nodes":[
		{
			"mesh":0,
			"name":"design",
			"rotation":[
				0.7071068286895752,
				0,
				0,
				0.7071068286895752
			]
		}
	],
	"materials":[
		{
			"doubleSided":true,
			"name":"Material",
			"pbrMetallicRoughness":{
				"baseColorFactor":[
					0.002124686259776354,
					0.002124686958268285,
					0.002124688820913434,
					1
				],
				"metallicFactor":0.5,
				"roughnessFactor":0.5
			}
		}
	],
	"meshes":[
		{
			"name":"design",
			"primitives":[
				{
					"attributes":{
						"POSITION":0,
						"TEXCOORD_0":1,
						"NORMAL":2
					},
					"indices":3,
					"material":0
				}
			]
		}
	],
	"accessors":[
		{
			"bufferView":0,
			"componentType":5126,
			"count":859,
			"max":[
				0.11062552779912949,
				0.005001011770218611,
				0.10194378346204758
			],
			"min":[
				-0.11515688896179199,
				-0.0050023696385324,
				-0.09554915130138397
			],
			"type":"VEC3"
		},
		{
			"bufferView":1,
			"componentType":5126,
			"count":859,
			"type":"VEC2"
		},
		{
			"bufferView":2,
			"componentType":5126,
			"count":859,
			"type":"VEC3"
		},
		{
			"bufferView":3,
			"componentType":5123,
			"count":2244,
			"type":"SCALAR"
		}
	],
	"bufferViews":[
		{
			"buffer":0,
			"byteLength":10308,
			"byteOffset":0,
			"target":34962
		},
		{
			"buffer":0,
			"byteLength":6872,
			"byteOffset":10308,
			"target":34962
		},
		{
			"buffer":0,
			"byteLength":10308,
			"byteOffset":17180,
			"target":34962
		},
		{
			"buffer":0,
			"byteLength":4488,
			"byteOffset":27488,
			"target":34963
		}
	],
	"buffers":[
		{
			"byteLength":31976,
			"uri":"data:application/octet-stream;base64,"
		}
	]
}
