{
	"asset":{
		"generator":"Khronos glTF Blender I/O v3.5.30",
		"version":"2.0"
	},
	"scene":0,
	"scenes":[
		{
			"name":"Scene",
			"nodes":[
				0
			]
		}
	],
	"nodes":[
		{
			"mesh":0,
			"name":"landing",
			"rotation":[
				0.7071068286895752,
				0,
				0,
				0.7071068286895752
			]
		}
	],
	"materials":[
		{
			"doubleSided":true,
			"name":"Material",
			"pbrMetallicRoughness":{
				"baseColorFactor":[
					0.002124686259776354,
					0.002124686958268285,
					0.002124688820913434,
					1
				],
				"metallicFactor":0.5,
				"roughnessFactor":0.5
			}
		}
	],
	"meshes":[
		{
			"name":"landing",
			"primitives":[
				{
					"attributes":{
						"POSITION":0,
						"TEXCOORD_0":1,
						"NORMAL":2
					},
					"indices":3,
					"material":0
				}
			]
		}
	],
	"accessors":[
		{
			"bufferView":0,
			"componentType":5126,
			"count":1468,
			"max":[
				0.11260280758142471,
				0.005000003147870302,
				0.1043112650513649
			],
			"min":[
				-0.11317899078130722,
				-0.005000004079192877,
				-0.10071690380573273
			],
			"type":"VEC3"
		},
		{
			"bufferView":1,
			"componentType":5126,
			"count":1468,
			"type":"VEC2"
		},
		{
			"bufferView":2,
			"componentType":5126,
			"count":1468,
			"type":"VEC3"
		},
		{
			"bufferView":3,
			"componentType":5123,
			"count":4086,
			"type":"SCALAR"
		}
	],
	"bufferViews":[
		{
			"buffer":0,
			"byteLength":17616,
			"byteOffset":0,
			"target":34962
		},
		{
			"buffer":0,
			"byteLength":11744,
			"byteOffset":17616,
			"target":34962
		},
		{
			"buffer":0,
			"byteLength":17616,
			"byteOffset":29360,
			"target":34962
		},
		{
			"buffer":0,
			"byteLength":8172,
			"byteOffset":46976,
			"target":34963
		}
	],
	"buffers":[
		{
			"byteLength":55148,
			"uri":"data:application/octet-stream;base64,"
		}
	]
}
