{
	"asset":{
		"generator":"Khronos glTF Blender I/O v3.5.30",
		"version":"2.0"
	},
	"scene":0,
	"scenes":[
		{
			"name":"Scene",
			"nodes":[
				0
			]
		}
	],
	"nodes":[
		{
			"mesh":0,
			"name":"launch",
			"rotation":[
				0.7071068286895752,
				0,
				0,
				0.7071068286895752
			]
		}
	],
	"materials":[
		{
			"doubleSided":true,
			"name":"Material",
			"pbrMetallicRoughness":{
				"baseColorFactor":[
					0.1946176439523697,
					0.19461767375469208,
					0.1946178525686264,
					1
				],
				"metallicFactor":0.5,
				"roughnessFactor":0.5
			}
		}
	],
	"meshes":[
		{
			"name":"launch",
			"primitives":[
				{
					"attributes":{
						"POSITION":0,
						"TEXCOORD_0":1,
						"NORMAL":2
					},
					"indices":3,
					"material":0
				}
			]
		}
	],
	"accessors":[
		{
			"bufferView":0,
			"componentType":5126,
			"count":658,
			"max":[
				0.11034424602985382,
				0.005000000819563866,
				0.10741783678531647
			],
			"min":[
				-0.11544755101203918,
				-0.005000001285225153,
				-0.11838844418525696
			],
			"type":"VEC3"
		},
		{
			"bufferView":1,
			"componentType":5126,
			"count":658,
			"type":"VEC2"
		},
		{
			"bufferView":2,
			"componentType":5126,
			"count":658,
			"type":"VEC3"
		},
		{
			"bufferView":3,
			"componentType":5123,
			"count":1896,
			"type":"SCALAR"
		}
	],
	"bufferViews":[
		{
			"buffer":0,
			"byteLength":7896,
			"byteOffset":0,
			"target":34962
		},
		{
			"buffer":0,
			"byteLength":5264,
			"byteOffset":7896,
			"target":34962
		},
		{
			"buffer":0,
			"byteLength":7896,
			"byteOffset":13160,
			"target":34962
		},
		{
			"buffer":0,
			"byteLength":3792,
			"byteOffset":21056,
			"target":34963
		}
	],
	"buffers":[
		{
			"byteLength":24848,
			"uri":"data:application/octet-stream;base64,"
		}
	]
}
