{
	"asset":{
		"generator":"Khronos glTF Blender I/O v3.5.30",
		"version":"2.0"
	},
	"scene":0,
	"scenes":[
		{
			"name":"Scene",
			"nodes":[
				0
			]
		}
	],
	"nodes":[
		{
			"mesh":0,
			"name":"maintenance",
			"rotation":[
				0.7071068286895752,
				0,
				0,
				0.7071068286895752
			]
		}
	],
	"materials":[
		{
			"doubleSided":true,
			"name":"Material",
			"pbrMetallicRoughness":{
				"baseColorFactor":[
					0.002124686259776354,
					0.002124686958268285,
					0.002124688820913434,
					1
				],
				"metallicFactor":0.5,
				"roughnessFactor":0.5
			}
		}
	],
	"meshes":[
		{
			"name":"maintenance",
			"primitives":[
				{
					"attributes":{
						"POSITION":0,
						"TEXCOORD_0":1,
						"NORMAL":2
					},
					"indices":3,
					"material":0
				}
			]
		}
	],
	"accessors":[
		{
			"bufferView":0,
			"componentType":5126,
			"count":819,
			"max":[
				0.11376269906759262,
				0.005000010598450899,
				0.10351764410734177
			],
			"min":[
				-0.11201910674571991,
				-0.005000010598450899,
				-0.10150672495365143
			],
			"type":"VEC3"
		},
		{
			"bufferView":1,
			"componentType":5126,
			"count":819,
			"type":"VEC2"
		},
		{
			"bufferView":2,
			"componentType":5126,
			"count":819,
			"type":"VEC3"
		},
		{
			"bufferView":3,
			"componentType":5123,
			"count":2124,
			"type":"SCALAR"
		}
	],
	"bufferViews":[
		{
			"buffer":0,
			"byteLength":9828,
			"byteOffset":0,
			"target":34962
		},
		{
			"buffer":0,
			"byteLength":6552,
			"byteOffset":9828,
			"target":34962
		},
		{
			"buffer":0,
			"byteLength":9828,
			"byteOffset":16380,
			"target":34962
		},
		{
			"buffer":0,
			"byteLength":4248,
			"byteOffset":26208,
			"target":34963
		}
	],
	"buffers":[
		{
			"byteLength":30456,
			"uri":"data:application/octet-stream;base64,"
		}
	]
}
