{
	"asset":{
		"generator":"Khronos glTF Blender I/O v3.5.30",
		"version":"2.0"
	},
	"scene":0,
	"scenes":[
		{
			"name":"Scene",
			"nodes":[
				0
			]
		}
	],
	"nodes":[
		{
			"mesh":0,
			"name":"spa",
			"rotation":[
				0.7071068286895752,
				0,
				0,
				0.7071068286895752
			]
		}
	],
	"materials":[
		{
			"doubleSided":true,
			"name":"Material",
			"pbrMetallicRoughness":{
				"baseColorFactor":[
					0.002124686259776354,
					0.002124686958268285,
					0.002124688820913434,
					1
				],
				"metallicFactor":0.5,
				"roughnessFactor":0.5
			}
		}
	],
	"meshes":[
		{
			"name":"spa",
			"primitives":[
				{
					"attributes":{
						"POSITION":0,
						"TEXCOORD_0":1,
						"NORMAL":2
					},
					"indices":3,
					"material":0
				}
			]
		}
	],
	"accessors":[
		{
			"bufferView":0,
			"componentType":5126,
			"count":706,
			"max":[
				0.1139649823307991,
				0.005000000353902578,
				0.10106975585222244
			],
			"min":[
				-0.11180828511714935,
				-0.005000000353902578,
				-0.09365323930978775
			],
			"type":"VEC3"
		},
		{
			"bufferView":1,
			"componentType":5126,
			"count":706,
			"type":"VEC2"
		},
		{
			"bufferView":2,
			"componentType":5126,
			"count":706,
			"type":"VEC3"
		},
		{
			"bufferView":3,
			"componentType":5123,
			"count":1770,
			"type":"SCALAR"
		}
	],
	"bufferViews":[
		{
			"buffer":0,
			"byteLength":8472,
			"byteOffset":0,
			"target":34962
		},
		{
			"buffer":0,
			"byteLength":5648,
			"byteOffset":8472,
			"target":34962
		},
		{
			"buffer":0,
			"byteLength":8472,
			"byteOffset":14120,
			"target":34962
		},
		{
			"buffer":0,
			"byteLength":3540,
			"byteOffset":22592,
			"target":34963
		}
	],
	"buffers":[
		{
			"byteLength":26132,
			"uri":"data:application/octet-stream;base64,"
		}
	]
}
