{
	"asset":{
		"generator":"Khronos glTF Blender I/O v3.5.30",
		"version":"2.0"
	},
	"scene":0,
	"scenes":[
		{
			"name":"Scene",
			"nodes":[
				0
			]
		}
	],
	"nodes":[
		{
			"mesh":0,
			"name":"testing",
			"rotation":[
				0.7071068286895752,
				0,
				0,
				0.7071068286895752
			]
		}
	],
	"materials":[
		{
			"doubleSided":true,
			"name":"Material",
			"pbrMetallicRoughness":{
				"baseColorFactor":[
					0.1946176439523697,
					0.19461767375469208,
					0.1946178525686264,
					1
				],
				"metallicFactor":0.5,
				"roughnessFactor":0.5
			}
		}
	],
	"meshes":[
		{
			"name":"testing",
			"primitives":[
				{
					"attributes":{
						"POSITION":0,
						"TEXCOORD_0":1,
						"NORMAL":2
					},
					"indices":3,
					"material":0
				}
			]
		}
	],
	"accessors":[
		{
			"bufferView":0,
			"componentType":5126,
			"count":496,
			"max":[
				0.11292687803506851,
				0.005000000353902578,
				0.06416814029216766
			],
			"min":[
				-0.11292733252048492,
				-0.005000000353902578,
				-0.06206810474395752
			],
			"type":"VEC3"
		},
		{
			"bufferView":1,
			"componentType":5126,
			"count":496,
			"type":"VEC2"
		},
		{
			"bufferView":2,
			"componentType":5126,
			"count":496,
			"type":"VEC3"
		},
		{
			"bufferView":3,
			"componentType":5123,
			"count":1434,
			"type":"SCALAR"
		}
	],
	"bufferViews":[
		{
			"buffer":0,
			"byteLength":5952,
			"byteOffset":0,
			"target":34962
		},
		{
			"buffer":0,
			"byteLength":3968,
			"byteOffset":5952,
			"target":34962
		},
		{
			"buffer":0,
			"byteLength":5952,
			"byteOffset":9920,
			"target":34962
		},
		{
			"buffer":0,
			"byteLength":2868,
			"byteOffset":15872,
			"target":34963
		}
	],
	"buffers":[
		{
			"byteLength":18740,
			"uri":"data:application/octet-stream;base64,"
		}
	]
}
