<?xml version="1.0" encoding="UTF-8"?><svg xmlns="http://www.w3.org/2000/svg" viewBox="0 0 51.6 80"><defs><style>.cls-1{fill:#d02670;}.cls-1,.cls-2,.cls-3{mix-blend-mode:multiply;}.cls-4{isolation:isolate;}.cls-2{fill:#ad3ffc;}.cls-3{fill:#8a3ffc;}</style></defs><g class="cls-4"><g id="Layer_2"><g id="Layer_1-2"><g><path class="cls-3" d="M21.4,.3c3.8-.4,10.4-.4,14.1,0L14.1,79.7c-3.8,.4-10.4,.4-14.1,0L21.4,.3Z"/><path class="cls-1" d="M15.6,71.4c-.4-4.7-.4-9.4,0-14.1l22.7-10.3-22.7-10.3c-.4-4.7-.4-9.4,0-14.1l35.7,16.3c.4,5.4,.4,10.8,0,16.1L15.6,71.4h0Z"/><path class="cls-2" d="M9.2,54.4c-.4-4.7-.4-9.4,0-14.1l22.7-10.3L9.2,19.7c-.4-4.7-.4-9.4,0-14.1L44.9,21.9c.4,5.4,.4,10.8,0,16.1L9.2,54.4h0Z"/></g></g></g></g></svg>